#!OML:ASF F:\VICON\USERDATA\INSTALL\rory3\rory3.ASF
:FULLY-SPECIFIED
:DEGREES
554
root 7.96804 17.3603 5.15247 9.42182 41.8328 2.77054
lowerback 9.16548 -1.10834 -5.9568
upperback 1.59805 -1.89406 3.45486
thorax -3.15734 -0.862798 7.22457
lowerneck 3.09498 -15.0162 -21.5512
upperneck -8.8935 -20.3136 29.5175
head 2.60728 -10.5232 11.667
rclavicle -9.93923e-015 -3.18055e-015
rhumerus -32.5032 -22.3742 -67.1031
rradius 34.7765
rwrist -13.6303
rhand -11.864 17.7798
rfingers 7.12502
rthumb 14.188 -11.7157
lclavicle -9.93923e-015 -3.18055e-015
lhumerus -35.0486 30.2944 55.7217
lradius 26.3269
lwrist -6.8673
lhand -5.69521 37.8053
lfingers 7.12502
lthumb 20.1253 66.7828
rfemur -37.9883 -4.6986 17.3362
rtibia 42.2736
rfoot -8.72162 -8.52163
rtoes 26.7734
lfemur -0.00451836 -9.53197 -19.1993
ltibia 28.2117
lfoot -12.0223 -27.3809
ltoes 22.5684
555
root 8.0003 17.3696 5.2333 9.05841 41.5336 2.36847
lowerback 9.1885 -1.17339 -5.67484
upperback 1.57264 -1.94759 3.61071
thorax -3.19212 -0.88928 7.23633
lowerneck 2.96391 -14.8401 -21.6455
upperneck -8.83407 -20.0581 29.4873
head 2.58781 -10.3828 11.7084
rclavicle -6.95746e-015 -5.56597e-015
rhumerus -32.1644 -21.8537 -67.2899
rradius 35.1444
rwrist -13.6432
rhand -12.2637 18.6015
rfingers 7.12502
rthumb 13.8029 -10.9206
lclavicle -6.95746e-015 -5.56597e-015
lhumerus -34.2888 29.8766 56.1088
lradius 26.8305
lwrist -6.30105
lhand -5.88853 37.6344
lfingers 7.12502
lthumb 19.9395 66.6314
rfemur -37.6305 -4.62926 17.8031
rtibia 42.3125
rfoot -8.95502 -8.15576
rtoes 25.7321
lfemur 0.267422 -9.56898 -18.8919
ltibia 28.4787
lfoot -11.1494 -27.2728
ltoes 22.1876
556
root 8.02413 17.378 5.3102 8.92086 41.0524 2.13299
lowerback 9.18057 -1.19462 -5.5523
upperback 1.44258 -1.9644 3.63657
thorax -3.32488 -0.890241 7.19846
lowerneck 3.00645 -14.6463 -21.4135
upperneck -8.73888 -19.7896 29.2989
head 2.48585 -10.2508 11.6646
rclavicle -8.54774e-015 0
rhumerus -32.1367 -21.2581 -67.665
rradius 35.947
rwrist -13.8306
rhand -12.7528 18.7447
rfingers 7.12502
rthumb 13.3315 -10.8088
lclavicle -8.54774e-015 0
lhumerus -33.8427 28.3279 56.5477
lradius 27.8587
lwrist -4.71038
lhand -6.40967 37.8695
lfingers 7.12502
lthumb 19.4385 66.9179
rfemur -37.4556 -4.19486 18.08
rtibia 42.3127
rfoot -9.11067 -8.04867
rtoes 25.7977
lfemur 0.273753 -9.41988 -18.7088
ltibia 28.7212
lfoot -10.4373 -26.9997
ltoes 20.9574
557
root 8.05144 17.3822 5.39402 8.89627 40.6106 2.03554
lowerback 9.08442 -1.2594 -5.40019
upperback 1.30763 -2.03808 3.54033
thorax -3.41006 -0.922763 7.0149
lowerneck 3.04342 -14.5903 -20.927
upperneck -8.36794 -19.7459 28.9897
head 2.47284 -10.2246 11.4889
rclavicle -5.56597e-015 -2.22639e-014
rhumerus -32.1747 -20.5112 -68.2321
rradius 36.9496
rwrist -14.6528
rhand -12.7507 17.7846
rfingers 7.12502
rthumb 13.3335 -11.7688
lclavicle -5.56597e-015 -2.22639e-014
lhumerus -33.5029 27.148 56.6026
lradius 28.7782
lwrist -3.32441
lhand -7.02278 38.3729
lfingers 7.12502
lthumb 18.8489 67.4797
rfemur -37.2832 -3.8623 18.2601
rtibia 42.2986
rfoot -9.38888 -7.90139
rtoes 25.948
lfemur 0.353649 -9.26162 -18.5888
ltibia 28.9716
lfoot -10.306 -26.3466
ltoes 17.8429
558
root 8.09268 17.3935 5.48857 8.60448 40.3664 1.87374
lowerback 9.11636 -1.36233 -5.13246
upperback 1.29309 -2.14952 3.54797
thorax -3.43518 -0.980027 6.8824
lowerneck 2.5851 -14.6321 -20.7494
upperneck -7.69482 -19.8327 28.6479
head 2.69005 -10.2108 11.2704
rclavicle 3.10104e-014 1.82882e-014
rhumerus -31.9612 -19.9129 -68.549
rradius 37.6849
rwrist -15.4359
rhand -12.3407 16.3227
rfingers 7.12502
rthumb 13.7286 -13.2045
lclavicle 3.10104e-014 1.82882e-014
lhumerus -32.9405 27.1208 56.5927
lradius 29.2053
lwrist -3.22221
lhand -7.00771 38.4138
lfingers 7.12502
lthumb 18.8634 67.5191
rfemur -36.7203 -3.76176 18.4861
rtibia 42.2967
rfoot -9.86105 -7.73247
rtoes 27.4618
lfemur 0.748698 -9.23841 -18.4231
ltibia 29.273
lfoot -9.4151 -25.8122
ltoes 17.1431
559
root 8.12856 17.4053 5.58411 8.30554 40.0183 1.72623
lowerback 9.19318 -1.46245 -5.07316
upperback 1.27253 -2.27637 3.63021
thorax -3.47871 -1.0413 6.95431
lowerneck 1.94522 -14.5779 -20.8256
upperneck -7.00324 -19.7733 28.3889
head 2.94805 -10.1088 11.1314
rclavicle 3.57812e-014 -1.27222e-014
rhumerus -31.639 -19.3934 -68.7748
rradius 38.214
rwrist -15.7838
rhand -11.9925 15.4962
rfingers 7.12502
rthumb 14.0642 -14.0079
lclavicle 3.57812e-014 -1.27222e-014
lhumerus -32.4528 26.9474 56.7831
lradius 29.8146
lwrist -2.86512
lhand -6.59937 37.9345
lfingers 7.12502
lthumb 19.2561 67.0012
rfemur -36.1548 -3.62173 18.7432
rtibia 42.3137
rfoot -10.1576 -7.52879
rtoes 24.8255
lfemur 1.11274 -9.14151 -18.2705
ltibia 29.6165
lfoot -8.55751 -25.8615
ltoes 15.5837
560
root 8.15342 17.4097 5.67827 8.25668 39.5831 1.63784
lowerback 9.05291 -1.58127 -5.22787
upperback 1.19958 -2.44125 3.7466
thorax -3.43937 -1.1212 7.18182
lowerneck 1.59914 -14.4607 -20.7668
upperneck -6.59888 -19.6119 28.0925
head 3.03192 -9.98885 11.0139
rclavicle 6.63941e-014 -3.97569e-015
rhumerus -31.1924 -18.6712 -69.099
rradius 38.5141
rwrist -16.1686
rhand -12.0657 15.9622
rfingers 7.12502
rthumb 13.9937 -13.5468
lclavicle 6.63941e-014 -3.97569e-015
lhumerus -32.0352 26.0698 57.2573
lradius 30.8051
lwrist -1.36456
lhand -6.90153 37.9799
lfingers 7.12502
lthumb 18.9655 67.0753
rfemur -35.8949 -3.4241 19.0024
rtibia 42.3142
rfoot -10.4542 -7.33877
rtoes 26.2441
lfemur 1.17344 -8.99622 -18.0974
ltibia 30.0544
lfoot -7.3323 -26.2985
ltoes 15.1546
561
root 8.18132 17.4159 5.76972 8.16608 39.2428 1.5338
lowerback 8.93687 -1.62561 -5.39218
upperback 1.10844 -2.50552 3.93003
thorax -3.44425 -1.14799 7.47824
lowerneck 1.83291 -14.3632 -20.5676
upperneck -6.5563 -19.4976 27.7023
head 2.8998 -9.94435 10.894
rclavicle -4.73108e-014 2.14687e-014
rhumerus -30.9216 -18.1072 -69.1845
rradius 38.7639
rwrist -16.3868
rhand -12.5058 16.3059
rfingers 7.12502
rthumb 13.5696 -13.2319
lclavicle -4.73108e-014 2.14687e-014
lhumerus -31.6198 24.918 57.9291
lradius 31.8519
lwrist -0.0139677
lhand -7.38083 38.2595
lfingers 7.12502
lthumb 18.5045 67.3993
rfemur -35.5617 -3.15858 19.2054
rtibia 42.2891
rfoot -10.7444 -7.22692
rtoes 25.8197
lfemur 1.08896 -8.77371 -17.9028
ltibia 30.6253
lfoot -4.74541 -26.8339
ltoes 19.1431
